HIERARCHY
ROOT newVegas:Hips
{
	OFFSET 0.000000 96.479958 0.000000
	CHANNELS 6 Xposition Yposition Zposition Xrotation Yrotation Zrotation
	JOINT newVegas:Pelvis
	{
		OFFSET 0.000000 0.000000 0.000000
		CHANNELS 3 Xrotation Yrotation Zrotation
		JOINT newVegas:LeftUpLeg
		{
			OFFSET 18.735201 -5.666702 -4.541200
			CHANNELS 3 Xrotation Yrotation Zrotation
			JOINT newVegas:LeftLeg
			{
				OFFSET -0.021200 -31.938179 0.493100
				CHANNELS 3 Xrotation Yrotation Zrotation
				JOINT newVegas:LeftFoot
				{
					OFFSET 0.021200 -31.938179 -4.336299
					CHANNELS 3 Xrotation Yrotation Zrotation
					JOINT newVegas:LeftToeBase
					{
						OFFSET 0.943001 -26.722000 15.023500
						CHANNELS 3 Xrotation Yrotation Zrotation
						End Site
						{
							OFFSET 0.000000 30.670183 0.000000
						}
					}
				}
				JOINT newVegas:Left_PantLeg
				{
					OFFSET 0.663870 -9.044666 -1.108900
					CHANNELS 3 Xrotation Yrotation Zrotation
					End Site
					{
						OFFSET 1.415995 20.635357 0.000000
					}
				}
			}
		}
		JOINT newVegas:RightUpLeg
		{
			OFFSET -18.735201 -5.666702 -4.541200
			CHANNELS 3 Xrotation Yrotation Zrotation
			JOINT newVegas:RightLeg
			{
				OFFSET 0.018946 -31.938133 0.493100
				CHANNELS 3 Xrotation Yrotation Zrotation
				JOINT newVegas:RightFoot
				{
					OFFSET -0.018946 -31.938126 -4.336299
					CHANNELS 3 Xrotation Yrotation Zrotation
					JOINT newVegas:RightToeBase
					{
						OFFSET -0.943001 -26.722004 15.023500
						CHANNELS 3 Xrotation Yrotation Zrotation
						End Site
						{
							OFFSET 0.000000 30.670187 0.000000
						}
					}
				}
				JOINT newVegas:Right_PantLeg
				{
					OFFSET -0.661674 -9.044716 -1.108900
					CHANNELS 3 Xrotation Yrotation Zrotation
					End Site
					{
						OFFSET -1.415958 20.635269 0.000000
					}
				}
			}
		}
	}
	JOINT newVegas:Spine
	{
		OFFSET 0.000000 10.199997 -0.299500
		CHANNELS 3 Xrotation Yrotation Zrotation
		JOINT newVegas:Spine1
		{
			OFFSET 0.000000 11.900002 -1.516600
			CHANNELS 3 Xrotation Yrotation Zrotation
			JOINT newVegas:Spine2
			{
				OFFSET 0.000000 13.600006 -2.842500
				CHANNELS 3 Xrotation Yrotation Zrotation
				JOINT newVegas:Neck
				{
					OFFSET 0.000000 9.624100 -2.890100
					CHANNELS 3 Xrotation Yrotation Zrotation
					JOINT newVegas:Head
					{
						OFFSET 0.000000 14.068802 -1.351900
						CHANNELS 3 Xrotation Yrotation Zrotation
						JOINT newVegas:Hair_Back
						{
							OFFSET 0.000000 3.231903 -17.524799
							CHANNELS 3 Xrotation Yrotation Zrotation
							End Site
							{
								OFFSET 0.000000 19.849884 0.000000
							}
						}
						JOINT newVegas:Hair_Front
						{
							OFFSET 0.000000 31.260406 4.573800
							CHANNELS 3 Xrotation Yrotation Zrotation
							JOINT newVegas:Hair_Front1
							{
								OFFSET 0.000000 2.284103 11.993300
								CHANNELS 3 Xrotation Yrotation Zrotation
								JOINT newVegas:Hair_Front2
								{
									OFFSET 0.000000 2.284103 11.993300
									CHANNELS 3 Xrotation Yrotation Zrotation
									End Site
									{
										OFFSET 0.000000 12.208862 0.000000
									}
								}
							}
						}
						JOINT newVegas:Jowel
						{
							OFFSET 0.000000 -7.458206 6.864100
							CHANNELS 3 Xrotation Yrotation Zrotation
							End Site
							{
								OFFSET 0.000000 19.849884 0.000000
							}
						}
					}
				}
				JOINT newVegas:LeftShoulder
				{
					OFFSET 15.263000 10.923401 -0.547700
					CHANNELS 3 Xrotation Yrotation Zrotation
					JOINT newVegas:LeftArm
					{
						OFFSET 25.438599 -2.830597 -13.032500
						CHANNELS 3 Xrotation Yrotation Zrotation
						JOINT newVegas:LeftForeArm
						{
							OFFSET 29.960503 0.000000 0.000000
							CHANNELS 3 Xrotation Yrotation Zrotation
							JOINT newVegas:LeftHand
							{
								OFFSET 27.849251 0.000000 0.000000
								CHANNELS 3 Xrotation Yrotation Zrotation
								JOINT newVegas:LeftHandThumb1
								{
									OFFSET 4.487587 -3.305161 6.305391
									CHANNELS 3 Xrotation Yrotation Zrotation
									JOINT newVegas:LeftHandThumb2
									{
										OFFSET 5.480453 -3.164139 3.164143
										CHANNELS 3 Xrotation Yrotation Zrotation
										JOINT newVegas:LeftHandThumb3
										{
											OFFSET 5.159721 -2.978973 2.978967
											CHANNELS 3 Xrotation Yrotation Zrotation
											End Site
											{
												OFFSET 2.494507 5.926697 1.738678
											}
										}
									}
								}
								JOINT newVegas:LeftHandIndex1
								{
									OFFSET 18.578728 -0.527832 5.208049
									CHANNELS 3 Xrotation Yrotation Zrotation
									JOINT newVegas:LeftHandIndex2
									{
										OFFSET 3.192009 0.000000 0.000000
										CHANNELS 3 Xrotation Yrotation Zrotation
										JOINT newVegas:LeftHandIndex3
										{
											OFFSET 3.835129 0.000000 0.000000
											CHANNELS 3 Xrotation Yrotation Zrotation
											End Site
											{
												OFFSET -0.034599 3.816971 0.371180
											}
										}
									}
								}
								JOINT newVegas:LeftHandMiddle1
								{
									OFFSET 18.476105 0.000000 0.000000
									CHANNELS 3 Xrotation Yrotation Zrotation
									JOINT newVegas:LeftHandMiddle2
									{
										OFFSET 3.324875 0.000000 0.000000
										CHANNELS 3 Xrotation Yrotation Zrotation
										JOINT newVegas:LeftHandMiddle3
										{
											OFFSET 4.596550 0.000000 0.000000
											CHANNELS 3 Xrotation Yrotation Zrotation
											End Site
											{
												OFFSET 0.057701 4.578827 0.399218
											}
										}
									}
								}
								JOINT newVegas:LeftHandRing1
								{
									OFFSET 17.732719 0.121887 -4.201567
									CHANNELS 3 Xrotation Yrotation Zrotation
									JOINT newVegas:LeftHandRing2
									{
										OFFSET 2.733170 0.000000 0.000000
										CHANNELS 3 Xrotation Yrotation Zrotation
										JOINT newVegas:LeftHandRing3
										{
											OFFSET 3.178268 0.000000 0.000000
											CHANNELS 3 Xrotation Yrotation Zrotation
											End Site
											{
												OFFSET 0.119102 3.170624 0.185394
											}
										}
									}
								}
								JOINT newVegas:LeftHandPinky1
								{
									OFFSET 15.989624 -0.606689 -7.535461
									CHANNELS 3 Xrotation Yrotation Zrotation
									JOINT newVegas:LeftHandPinky2
									{
										OFFSET 2.538986 0.000000 0.000000
										CHANNELS 3 Xrotation Yrotation Zrotation
										JOINT newVegas:LeftHandPinky3
										{
											OFFSET 2.593102 0.000000 0.000000
											CHANNELS 3 Xrotation Yrotation Zrotation
											End Site
											{
												OFFSET -0.150902 2.584198 0.152708
											}
										}
									}
								}
							}
							JOINT newVegas:Left_Sleeve
							{
								OFFSET 0.267448 -0.649796 0.577675
								CHANNELS 3 Xrotation Yrotation Zrotation
								End Site
								{
									OFFSET 0.000000 15.991241 0.000000
								}
							}
							JOINT newVegas:Left_CapeC
							{
								OFFSET 15.715958 -8.608795 -6.935905
								CHANNELS 3 Xrotation Yrotation Zrotation
								JOINT newVegas:Left_CapeC1
								{
									OFFSET 0.000000 -8.688499 0.000000
									CHANNELS 3 Xrotation Yrotation Zrotation
									End Site
									{
										OFFSET 0.000000 8.688499 0.000000
									}
								}
							}
						}
						JOINT newVegas:Left_CapeB
						{
							OFFSET 26.118385 -8.608795 -7.079235
							CHANNELS 3 Xrotation Yrotation Zrotation
							JOINT newVegas:Left_CapeB1
							{
								OFFSET 0.000000 -8.688499 0.000000
								CHANNELS 3 Xrotation Yrotation Zrotation
								End Site
								{
									OFFSET 0.000000 8.688499 0.000000
								}
							}
						}
						JOINT newVegas:Left_CapeA
						{
							OFFSET 5.115639 -8.608795 -10.395809
							CHANNELS 3 Xrotation Yrotation Zrotation
							JOINT newVegas:Left_CapeA1
							{
								OFFSET 0.000000 -8.688499 0.000000
								CHANNELS 3 Xrotation Yrotation Zrotation
								End Site
								{
									OFFSET 0.000000 8.688499 0.000000
								}
							}
						}
					}
				}
				JOINT newVegas:RightShoulder
				{
					OFFSET -15.263000 10.923401 -0.547700
					CHANNELS 3 Xrotation Yrotation Zrotation
					JOINT newVegas:RightArm
					{
						OFFSET -25.438599 -2.830597 -13.032500
						CHANNELS 3 Xrotation Yrotation Zrotation
						JOINT newVegas:RightForeArm
						{
							OFFSET -29.960503 0.000000 0.000000
							CHANNELS 3 Xrotation Yrotation Zrotation
							JOINT newVegas:RightHand
							{
								OFFSET -27.849251 0.000000 0.000000
								CHANNELS 3 Xrotation Yrotation Zrotation
								JOINT newVegas:RightHandThumb1
								{
									OFFSET -4.487587 -3.305161 6.305391
									CHANNELS 3 Xrotation Yrotation Zrotation
									JOINT newVegas:RightHandThumb2
									{
										OFFSET -5.480453 -3.164139 3.164143
										CHANNELS 3 Xrotation Yrotation Zrotation
										JOINT newVegas:RightHandThumb3
										{
											OFFSET -5.159721 -2.978973 2.978967
											CHANNELS 3 Xrotation Yrotation Zrotation
											End Site
											{
												OFFSET -2.494507 5.926697 1.738678
											}
										}
									}
								}
								JOINT newVegas:RightHandIndex1
								{
									OFFSET -18.578728 -0.527832 5.208049
									CHANNELS 3 Xrotation Yrotation Zrotation
									JOINT newVegas:RightHandIndex2
									{
										OFFSET -3.192009 0.000000 0.000000
										CHANNELS 3 Xrotation Yrotation Zrotation
										JOINT newVegas:RightHandIndex3
										{
											OFFSET -3.835129 0.000000 0.000000
											CHANNELS 3 Xrotation Yrotation Zrotation
											End Site
											{
												OFFSET 0.034599 3.816971 0.371180
											}
										}
									}
								}
								JOINT newVegas:RightHandMiddle1
								{
									OFFSET -18.476105 0.000000 0.000000
									CHANNELS 3 Xrotation Yrotation Zrotation
									JOINT newVegas:RightHandMiddle2
									{
										OFFSET -3.324875 0.000000 0.000000
										CHANNELS 3 Xrotation Yrotation Zrotation
										JOINT newVegas:RightHandMiddle3
										{
											OFFSET -4.596550 0.000000 0.000000
											CHANNELS 3 Xrotation Yrotation Zrotation
											End Site
											{
												OFFSET -0.057701 4.578827 0.399218
											}
										}
									}
								}
								JOINT newVegas:RightHandRing1
								{
									OFFSET -17.732719 0.121887 -4.201567
									CHANNELS 3 Xrotation Yrotation Zrotation
									JOINT newVegas:RightHandRing2
									{
										OFFSET -2.733170 0.000000 0.000000
										CHANNELS 3 Xrotation Yrotation Zrotation
										JOINT newVegas:RightHandRing3
										{
											OFFSET -3.178268 0.000000 0.000000
											CHANNELS 3 Xrotation Yrotation Zrotation
											End Site
											{
												OFFSET -0.119102 3.170624 0.185394
											}
										}
									}
								}
								JOINT newVegas:RightHandPinky1
								{
									OFFSET -15.989624 -0.606689 -7.535461
									CHANNELS 3 Xrotation Yrotation Zrotation
									JOINT newVegas:RightHandPinky2
									{
										OFFSET -2.538986 0.000000 0.000000
										CHANNELS 3 Xrotation Yrotation Zrotation
										JOINT newVegas:RightHandPinky3
										{
											OFFSET -2.593102 0.000000 0.000000
											CHANNELS 3 Xrotation Yrotation Zrotation
											End Site
											{
												OFFSET 0.150902 2.584198 0.152708
											}
										}
									}
								}
							}
							JOINT newVegas:Right_CapeC
							{
								OFFSET -15.715958 -8.608795 -6.935905
								CHANNELS 3 Xrotation Yrotation Zrotation
								JOINT newVegas:Right_CapeC1
								{
									OFFSET 0.000000 -8.688499 0.000000
									CHANNELS 3 Xrotation Yrotation Zrotation
									End Site
									{
										OFFSET 0.000000 8.688499 0.000000
									}
								}
							}
							JOINT newVegas:Right_Sleeve
							{
								OFFSET -0.267448 -0.649994 0.577675
								CHANNELS 3 Xrotation Yrotation Zrotation
								End Site
								{
									OFFSET 0.000000 15.991302 0.000000
								}
							}
						}
						JOINT newVegas:Right_CapeA
						{
							OFFSET -5.115540 -8.608795 -10.395824
							CHANNELS 3 Xrotation Yrotation Zrotation
							JOINT newVegas:Right_CapeA1
							{
								OFFSET 0.000000 -8.688499 0.000000
								CHANNELS 3 Xrotation Yrotation Zrotation
								End Site
								{
									OFFSET 0.000000 8.688499 0.000000
								}
							}
						}
						JOINT newVegas:Right_CapeB
						{
							OFFSET -26.118187 -8.608795 -7.079266
							CHANNELS 3 Xrotation Yrotation Zrotation
							JOINT newVegas:Right_CapeB1
							{
								OFFSET 0.000000 -8.688499 0.000000
								CHANNELS 3 Xrotation Yrotation Zrotation
								End Site
								{
									OFFSET 0.000000 8.688499 0.000000
								}
							}
						}
					}
				}
				JOINT newVegas:Left_Collar
				{
					OFFSET 18.625099 8.655502 8.828100
					CHANNELS 3 Xrotation Yrotation Zrotation
					JOINT newVegas:Left_Collar1
					{
						OFFSET 14.783401 10.540405 -1.259500
						CHANNELS 3 Xrotation Yrotation Zrotation
						End Site
						{
							OFFSET 0.000000 18.199875 0.000000
						}
					}
				}
				JOINT newVegas:Collar_Back
				{
					OFFSET 0.000000 15.630707 -20.132601
					CHANNELS 3 Xrotation Yrotation Zrotation
					End Site
					{
						OFFSET 0.000000 22.523010 0.000000
					}
				}
				JOINT newVegas:Left_Peck
				{
					OFFSET 17.239599 -5.132599 25.482599
					CHANNELS 3 Xrotation Yrotation Zrotation
					End Site
					{
						OFFSET 0.000000 22.523010 0.000000
					}
				}
				JOINT newVegas:Right_Peck
				{
					OFFSET -17.239599 -5.132202 25.482599
					CHANNELS 3 Xrotation Yrotation Zrotation
					End Site
					{
						OFFSET 0.000000 22.523010 0.000000
					}
				}
				JOINT newVegas:Right_Collar
				{
					OFFSET -18.625099 8.655792 8.828100
					CHANNELS 3 Xrotation Yrotation Zrotation
					JOINT newVegas:Right_Collar1
					{
						OFFSET -14.783401 10.539993 -1.259500
						CHANNELS 3 Xrotation Yrotation Zrotation
						End Site
						{
							OFFSET 0.000000 18.199631 0.000000
						}
					}
				}
			}
		}
		JOINT newVegas:Belly
		{
			OFFSET 0.000000 -6.540398 9.014299
			CHANNELS 3 Xrotation Yrotation Zrotation
			End Site
			{
				OFFSET 0.000000 11.566666 0.000000
			}
		}
	}
	JOINT newVegas:ElvisFacialAnim_Joint
	{
		OFFSET 1.000000 -95.330101 -8.825800
		CHANNELS 3 Xrotation Yrotation Zrotation
		End Site
		{
			OFFSET 0.000000 35.315800 0.000000
		}
	}
}
MOTION
Frames: 4
Frame Time: 0.033333
-3.147309 77.370071 1.086795 15.485528 -53.349382 11.994822 0.000000 -0.000002 0.000000 -73.291673 14.925203 48.959380 52.639882 -16.460498 4.651422 6.052770 0.369756 -16.621426 0.000000 0.000002 0.000000 -0.000000 0.000001 0.000000 -29.906677 -17.586407 -44.522936 41.123056 2.780804 -4.841241 -12.845244 -7.640228 40.179424 0.000000 0.000000 0.000000 -0.000000 0.000000 -0.000002 7.425500 3.355585 -3.380575 1.209173 1.420688 2.325053 0.209269 1.298836 1.049733 -0.390599 1.953704 -0.338244 -0.390598 1.953704 -0.338249 -0.000000 0.000002 -0.000001 -0.390673 1.953726 -0.338247 -0.390448 1.953683 -0.338248 0.000001 -0.000002 0.000000 -0.000000 0.000002 -0.000001 -2.416904 -9.914495 -4.105211 -4.668987 -14.995279 -46.826954 -96.668111 -58.172844 -94.771750 0.027026 -0.377064 -3.261911 4.766497 -0.870691 -14.442466 15.732296 12.674836 8.828574 0.000001 -0.000002 -0.000003 -3.610962 -7.817622 -81.262667 0.005155 -4.388523 -67.459074 0.000001 -0.000000 -0.000001 -5.483699 2.419511 -86.651051 -0.068362 -4.897267 -76.605523 -0.000000 0.000000 -0.000001 -4.480826 3.914160 -90.412519 -1.097242 -0.675686 -62.310743 0.000001 -0.000001 0.000003 -8.868646 8.263656 -85.753892 -0.047918 -0.066895 -74.105647 -0.000001 -0.000003 -0.000001 -0.000000 -0.000000 0.000000 -0.000000 -0.000000 0.000000 -0.000000 -0.000000 0.000000 0.000000 -0.000001 -0.000004 0.000001 -0.000001 -0.000006 0.000000 -0.000001 -0.000004 0.000000 -0.000001 -0.000004 -7.387813 -19.317431 2.804087 3.089097 2.300727 51.805134 -16.213824 73.879417 16.738395 -2.716608 27.655253 10.524496 24.918350 -21.323354 30.343051 9.041927 8.262102 -18.001811 -0.000000 -0.000003 0.000001 -0.070704 -3.035224 61.424212 0.006485 4.395144 66.609186 0.000001 -0.000000 0.000001 -1.235405 -0.119447 68.274257 -0.077313 4.902872 84.501905 -0.000000 0.000000 -0.000000 0.883170 -4.613443 79.192956 -0.717777 1.136492 73.255760 -0.000001 0.000001 -0.000000 -3.944547 0.099990 86.764795 -0.029809 0.060140 54.415154 -0.000001 -0.000000 -0.000000 0.000001 0.000002 0.000001 0.000002 -0.000001 0.000001 0.000001 0.000002 0.000001 -0.000001 0.000002 0.000003 -0.000000 0.000003 0.000001 -0.000001 0.000002 0.000003 -0.000000 0.000003 0.000003 0.000000 -0.000002 0.000001 0.000000 -0.000002 0.000001 0.000000 -0.000002 0.000001 0.000000 -0.000002 0.000001 0.000000 -0.000002 0.000001 0.000000 -0.000002 0.000001 0.000000 -0.000002 0.000001 -0.000001 -0.000001 0.000000 0.000000 -0.000002 0.000000 
-3.725255 77.317596 -0.589269 14.402603 -50.040278 10.393609 -0.000000 0.000000 -0.000000 -74.999398 13.745462 47.570331 47.184726 -18.326794 4.223382 15.677825 -1.274503 -17.549252 -0.000000 -0.000001 -0.000000 0.000001 0.000001 -0.000000 -30.129860 -20.750629 -44.167603 44.442412 2.612787 -5.080384 -16.175075 -8.597805 39.062542 0.000000 -0.000000 0.000000 -0.000001 -0.000001 -0.000001 7.507025 3.326774 -3.826370 1.407522 1.426504 2.108484 0.407627 1.305365 0.833164 -0.460776 1.958533 -0.376619 -0.460771 1.958535 -0.376617 0.000001 0.000001 -0.000001 -0.460780 1.958541 -0.376617 -0.460781 1.958578 -0.376625 -0.000000 0.000003 -0.000001 0.000001 0.000001 -0.000000 -2.416435 -10.023846 -4.065820 -5.616513 -18.844147 -46.049173 -96.589011 -58.966075 -94.737900 0.077024 1.995208 -2.996383 4.766498 -0.870692 -14.442464 15.732301 12.674833 8.828570 -0.000000 -0.000004 -0.000001 -3.610962 -7.817622 -81.262667 0.005154 -4.388522 -67.459067 0.000001 0.000000 -0.000001 -5.483699 2.419511 -86.651051 -0.068362 -4.897267 -76.605523 0.000001 0.000001 -0.000002 -4.480827 3.914160 -90.412512 -1.097241 -0.675684 -62.310737 -0.000002 -0.000000 -0.000005 -8.868643 8.263656 -85.753892 -0.047914 -0.066898 -74.105654 0.000001 -0.000003 -0.000004 -0.000000 0.000001 0.000000 -0.000000 0.000001 0.000000 -0.000000 0.000001 0.000000 -0.000000 -0.000001 -0.000000 -0.000000 -0.000001 -0.000004 -0.000000 -0.000001 -0.000000 -0.000000 -0.000001 -0.000000 -7.657428 -17.728804 2.806630 0.846998 2.336873 50.395311 -14.385413 75.487838 14.710546 -1.058345 24.803202 6.526326 24.918352 -21.323357 30.343044 9.041925 8.262098 -18.001805 -0.000000 -0.000003 0.000001 -0.070700 -3.035230 61.424205 0.006485 4.395146 66.609186 0.000002 0.000002 0.000000 -1.235402 -0.119450 68.274257 -0.077312 4.902869 84.501905 -0.000001 -0.000000 0.000000 0.883168 -4.613446 79.192949 -0.717779 1.136487 73.255760 -0.000005 0.000001 -0.000000 -3.944545 0.099986 86.764788 -0.029803 0.060133 54.415161 0.000002 0.000002 -0.000000 0.000001 -0.000001 -0.000001 0.000001 -0.000002 0.000000 0.000001 -0.000001 -0.000000 -0.000002 -0.000001 0.000000 -0.000002 -0.000001 -0.000000 -0.000002 -0.000001 0.000000 -0.000001 -0.000001 0.000002 0.000001 0.000002 -0.000001 0.000001 0.000002 -0.000001 0.000001 0.000002 -0.000001 0.000001 0.000002 -0.000001 0.000001 0.000002 -0.000001 0.000001 0.000002 -0.000001 0.000001 0.000002 -0.000001 -0.000001 0.000001 -0.000000 -0.000000 0.000000 -0.000000 
-4.362932 77.434242 -2.360370 13.524511 -46.684698 9.011741 -0.000000 -0.000002 0.000001 -75.030584 13.865231 46.200735 38.427396 -20.465829 3.300069 26.130041 -2.953805 -19.817425 -0.000000 0.000000 -0.000000 -0.000000 0.000000 0.000002 -29.996299 -24.230945 -43.518735 46.849480 2.135121 -5.275260 -19.134316 -9.373616 37.890836 0.000000 -0.000000 0.000000 -0.000001 0.000002 0.000001 7.605632 3.333949 -4.338680 1.640497 1.439009 1.874910 0.639751 1.318126 0.599695 -0.516291 1.923857 -0.387150 -0.516297 1.923873 -0.387148 0.000002 0.000004 -0.000001 -0.516300 1.923869 -0.387147 -0.516294 1.923875 -0.387153 0.000000 0.000001 0.000000 0.000002 0.000004 -0.000001 -2.448432 -10.464491 -4.408602 -6.619252 -22.309886 -45.385425 -95.783233 -59.607150 -93.875343 0.323957 3.137493 -3.026216 4.766496 -0.870693 -14.442467 15.732303 12.674837 8.828575 0.000001 -0.000003 -0.000001 -3.610963 -7.817620 -81.262667 0.005154 -4.388523 -67.459074 -0.000000 0.000001 0.000000 -5.483700 2.419511 -86.651051 -0.068362 -4.897269 -76.605523 0.000001 0.000000 -0.000002 -4.480824 3.914160 -90.412519 -1.097242 -0.675685 -62.310737 -0.000001 -0.000002 -0.000003 -8.868642 8.263656 -85.753892 -0.047916 -0.066897 -74.105647 0.000001 -0.000003 -0.000004 -0.000000 0.000000 0.000001 -0.000000 0.000000 0.000001 -0.000000 -0.000000 0.000001 0.000001 -0.000003 0.000001 0.000001 -0.000002 -0.000001 0.000001 -0.000003 0.000001 0.000001 -0.000002 0.000001 -7.955657 -15.907569 2.815718 -1.735069 2.340544 49.103538 -11.231829 77.104052 11.331288 0.236126 21.645235 2.336692 24.918352 -21.323354 30.343044 9.041928 8.262099 -18.001804 0.000003 -0.000002 -0.000001 -0.070701 -3.035225 61.424212 0.006483 4.395143 66.609186 0.000000 -0.000002 -0.000001 -1.235404 -0.119448 68.274257 -0.077311 4.902866 84.501912 -0.000002 0.000000 -0.000002 0.883178 -4.613446 79.192949 -0.717774 1.136494 73.255753 -0.000004 0.000001 -0.000001 -3.944540 0.099985 86.764781 -0.029807 0.060133 54.415161 0.000001 0.000001 0.000001 -0.000001 0.000000 -0.000002 -0.000000 -0.000002 -0.000003 -0.000001 0.000000 -0.000003 0.000001 0.000000 0.000002 0.000001 0.000000 0.000001 0.000001 0.000000 0.000002 0.000001 0.000000 0.000003 0.000001 0.000001 -0.000002 0.000001 0.000001 -0.000002 0.000001 0.000001 -0.000002 0.000001 0.000001 -0.000002 0.000001 0.000001 -0.000002 0.000001 0.000001 -0.000002 0.000001 0.000001 -0.000002 0.000000 -0.000001 0.000001 -0.000000 -0.000002 0.000001 
-4.908352 77.924171 -4.465401 12.795263 -43.245278 7.843918 0.000001 0.000000 0.000000 -73.380452 14.413169 44.313222 31.648067 -19.863239 2.792553 30.486846 -3.275994 -18.286535 0.000000 -0.000000 0.000000 0.000001 0.000000 -0.000001 -29.833781 -28.036513 -42.489418 48.355328 1.289542 -5.451002 -21.561176 -9.828964 36.454834 0.000000 0.000000 0.000000 0.000001 -0.000000 -0.000000 7.748192 3.232293 -4.897542 1.889529 1.431012 1.649072 0.885191 1.309679 0.373816 -0.568983 1.915714 -0.349998 -0.568957 1.915712 -0.350003 0.000000 0.000001 0.000000 -0.568902 1.915686 -0.349993 -0.569051 1.915749 -0.349998 -0.000000 0.000000 -0.000001 0.000000 0.000001 0.000000 -2.456268 -10.304163 -4.574776 -7.093379 -25.762813 -44.963975 -95.245745 -59.579201 -93.393500 0.350096 3.967725 -2.035013 4.766495 -0.870691 -14.442464 15.732299 12.674834 8.828574 -0.000002 0.000000 -0.000004 -3.610962 -7.817623 -81.262667 0.005155 -4.388523 -67.459067 0.000000 -0.000001 -0.000001 -5.483698 2.419512 -86.651051 -0.068362 -4.897270 -76.605523 0.000001 0.000001 0.000000 -4.480827 3.914160 -90.412519 -1.097242 -0.675686 -62.310743 0.000001 -0.000002 -0.000000 -8.868643 8.263657 -85.753892 -0.047916 -0.066896 -74.105647 -0.000001 0.000001 -0.000008 -0.000000 0.000000 -0.000000 -0.000000 0.000000 -0.000000 -0.000000 0.000000 -0.000000 0.000000 0.000000 -0.000001 -0.000000 -0.000000 -0.000004 0.000000 0.000000 -0.000001 0.000000 0.000000 -0.000001 -8.249198 -14.046062 2.831334 -4.492010 2.435301 47.961868 -7.042637 78.662490 6.888986 1.041868 18.420317 -1.802923 24.918354 -21.323354 30.343047 9.041926 8.262101 -18.001805 0.000001 -0.000000 -0.000001 -0.070702 -3.035224 61.424212 0.006483 4.395145 66.609186 -0.000000 -0.000001 -0.000001 -1.235403 -0.119448 68.274257 -0.077310 4.902869 84.501912 0.000002 0.000000 0.000000 0.883173 -4.613447 79.192949 -0.717775 1.136488 73.255760 0.000003 -0.000001 0.000000 -3.944541 0.099984 86.764788 -0.029805 0.060138 54.415157 0.000000 0.000002 -0.000000 -0.000002 0.000000 0.000003 -0.000002 -0.000000 0.000001 -0.000002 0.000001 0.000002 -0.000001 -0.000001 -0.000002 -0.000001 0.000000 -0.000002 -0.000001 -0.000001 -0.000002 -0.000001 -0.000001 -0.000000 0.000002 0.000002 0.000000 0.000002 0.000002 0.000000 0.000002 0.000002 0.000000 0.000002 0.000002 0.000000 0.000002 0.000002 0.000000 0.000002 0.000002 0.000000 0.000002 0.000002 0.000000 -0.000001 -0.000001 -0.000000 0.000001 0.000000 0.000000 
